<?xml version="1.0" standalone="no"?>
<!DOCTYPE svg PUBLIC "-//W3C//DTD SVG 20010904//EN"
 "http://www.w3.org/TR/2001/REC-SVG-20010904/DTD/svg10.dtd">
<svg version="1.0" xmlns="http://www.w3.org/2000/svg"
 width="300.000000pt" height="298.000000pt" viewBox="0 0 300.000000 298.000000"
 preserveAspectRatio="xMidYMid meet">
<metadata>
Created by potrace 1.10, written by Peter Selinger 2001-2011
</metadata>
<g transform="translate(0.000000,298.000000) scale(0.100000,-0.100000)"
fill="#000000" stroke="none">
<path fill="#ff4800" d="M1140 1984 c-58 -25 -99 -63 -128 -117 l-27 -52 -3 -290 c-4 -328 1
-371 54 -440 l34 -45 0 -138 c0 -122 2 -141 21 -172 51 -83 75 -88 404 -89
251 -1 284 1 320 18 77 35 102 86 104 215 1 49 7 99 13 110 6 12 53 64 104
117 116 118 133 154 134 269 0 97 -14 129 -76 176 -33 26 -46 29 -116 31 -109
3 -145 -15 -174 -82 -28 -67 3 -130 81 -166 50 -23 43 -89 -9 -89 -12 0 -43
13 -68 29 -61 39 -101 107 -102 172 l-1 49 -190 0 c-209 1 -257 8 -315 46 -42
28 -55 52 -45 83 10 32 35 33 76 5 56 -38 93 -43 315 -44 l201 0 24 26 c37 40
85 57 162 55 l67 -2 0 67 c0 37 -5 84 -12 106 -16 52 -77 121 -133 147 -43 20
-59 21 -362 21 -260 -1 -324 -4 -353 -16z m695 -34 c51 -24 77 -46 103 -90 22
-38 38 -128 25 -145 -4 -6 -38 -16 -75 -22 -48 -8 -80 -20 -114 -45 l-46 -33
-177 -3 c-187 -3 -256 6 -301 38 -40 29 -84 26 -109 -6 -25 -32 -26 -56 -4
-90 18 -28 72 -65 113 -79 14 -4 112 -11 218 -14 l193 -6 23 -68 c26 -77 70
-129 131 -158 55 -26 80 -24 110 8 40 44 30 90 -27 119 -46 24 -67 54 -68 95
0 45 37 88 77 91 176 10 241 -43 231 -189 -3 -37 -12 -84 -21 -103 -10 -20
-60 -79 -112 -132 -106 -110 -124 -147 -123 -270 0 -78 -20 -122 -70 -151 -30
-18 -55 -19 -322 -18 -316 1 -329 3 -366 58 -16 23 -20 53 -24 173 -5 143 -6
146 -37 191 -18 25 -36 63 -41 85 -5 21 -8 167 -8 324 l1 285 27 55 c27 55 57
81 123 107 20 8 125 12 330 12 275 1 303 -1 340 -19z"/>
<path d="M1320 1073 c-27 -22 -31 -31 -26 -57 4 -16 16 -40 27 -52 l21 -22
-26 -38 c-33 -49 -33 -69 0 -99 35 -33 60 -31 117 5 58 36 63 37 109 5 54 -37
88 -41 121 -15 35 28 36 68 1 110 l-27 31 27 28 c33 34 33 70 1 105 -31 34
-44 33 -115 -6 l-59 -33 -59 33 c-33 17 -64 32 -70 32 -6 0 -25 -12 -42 -27z
m114 -42 l59 -40 58 40 c68 46 83 48 105 14 16 -24 16 -27 -2 -46 -10 -12 -31
-27 -46 -35 -36 -19 -35 -28 7 -54 49 -30 62 -56 39 -81 -25 -27 -44 -24 -106
20 l-55 38 -59 -38 c-62 -41 -82 -47 -102 -27 -25 25 -13 55 33 85 25 15 45
30 45 33 0 3 -21 17 -45 32 -49 30 -61 68 -27 87 26 16 33 14 96 -28z"/>
</g>
</svg>
